<?xml version="1.0" standalone="no"?>
<!DOCTYPE svg PUBLIC "-//W3C//DTD SVG 20010904//EN"
 "http://www.w3.org/TR/2001/REC-SVG-20010904/DTD/svg10.dtd">
<svg version="1.0" xmlns="http://www.w3.org/2000/svg"
 width="700.000000pt" height="700.000000pt" viewBox="0 0 700.000000 700.000000"
 preserveAspectRatio="xMidYMid meet">
<metadata>
Created by potrace 1.11, written by Peter Selinger 2001-2013
</metadata>
<g transform="translate(0.000000,700.000000) scale(0.100000,-0.100000)"
fill="#000000" stroke="none">
<path d="M3298 6996 c-1 -2 -43 -6 -93 -10 -201 -13 -448 -59 -665 -121 -131
-38 -370 -122 -385 -136 -5 -5 -15 -9 -22 -9 -21 0 -260 -119 -388 -193 -102
-59 -289 -180 -305 -197 -3 -3 -43 -34 -90 -70 -47 -36 -92 -72 -101 -80 -8
-8 -44 -40 -80 -71 -62 -55 -227 -219 -269 -269 -12 -14 -35 -40 -51 -57 -52
-58 -180 -225 -239 -313 -213 -318 -368 -651 -469 -1009 -37 -130 -76 -304
-87 -391 -3 -19 -9 -63 -15 -98 -5 -34 -12 -92 -15 -130 -3 -37 -7 -85 -9
-107 -5 -53 -6 -420 -1 -465 3 -19 7 -69 10 -111 4 -42 8 -85 10 -95 2 -11 7
-44 11 -74 3 -30 13 -89 22 -130 8 -41 16 -84 18 -95 32 -164 120 -443 203
-640 86 -203 271 -528 394 -690 127 -167 221 -277 338 -394 76 -76 112 -111
225 -210 331 -293 867 -580 1300 -696 118 -32 210 -55 240 -60 17 -3 53 -10
80 -15 86 -16 109 -20 160 -26 28 -3 55 -7 62 -9 32 -11 229 -20 418 -20 218
0 354 9 495 31 19 3 49 7 65 9 17 3 41 7 55 10 14 3 41 8 60 11 176 31 468
120 665 204 283 119 575 290 790 460 38 30 78 62 89 70 11 8 67 58 125 111
565 514 926 1148 1076 1887 14 67 27 137 29 155 7 45 24 183 31 242 7 62 7
445 0 540 -8 107 -17 194 -30 280 -4 22 -9 54 -11 70 -13 88 -59 286 -94 405
-49 165 -39 135 -83 250 -64 172 -189 434 -260 547 -13 21 -43 68 -66 105
l-42 67 250 250 c138 138 251 253 251 255 0 2 -35 12 -77 22 -43 10 -82 19
-88 20 -9 2 -228 57 -277 70 -10 2 -26 6 -35 8 -10 2 -56 14 -103 25 -111 28
-130 32 -162 38 -23 4 -28 13 -38 57 -7 28 -28 114 -46 191 -19 77 -36 149
-38 160 -6 32 -86 359 -91 372 -2 7 -116 -99 -259 -242 -140 -140 -256 -255
-259 -255 -3 0 -63 34 -134 76 -321 192 -731 356 -1017 408 -14 3 -34 7 -44
10 -22 7 -233 43 -297 51 -27 3 -72 8 -100 11 -56 6 -531 14 -537 10z"/>
</g>
</svg>
